<mxfile host="65bd71144e" scale="0.4" border="10">
    <diagram name="Architecture" id="ZxNb3ZRvxUXgHok0wGSw">
        <mxGraphModel dx="1595" dy="1448" grid="1" gridSize="10" guides="1" tooltips="1" connect="1" arrows="1" fold="1" page="0" pageScale="1" pageWidth="850" pageHeight="1100" background="#ffffff" math="0" shadow="0">
            <root>
                <mxCell id="JIjRH5YEn0AflAmvl6jd-0"/>
                <mxCell id="JIjRH5YEn0AflAmvl6jd-1" parent="JIjRH5YEn0AflAmvl6jd-0"/>
                <mxCell id="JIjRH5YEn0AflAmvl6jd-2" value="&lt;font style=&quot;font-size: 28px&quot;&gt;&lt;b&gt;Shopper&lt;/b&gt;&lt;/font&gt;" style="shape=umlFrame;whiteSpace=wrap;html=1;strokeWidth=2;width=160;height=60;fontSize=16;rounded=0;" vertex="1" parent="JIjRH5YEn0AflAmvl6jd-1">
                    <mxGeometry x="-40" y="-240" width="880" height="930" as="geometry"/>
                </mxCell>
                <mxCell id="2dJTBPjTqBGKgnkC0r_L-22" value="" style="rounded=1;whiteSpace=wrap;html=1;fillColor=none;gradientColor=#ffffff;" vertex="1" parent="JIjRH5YEn0AflAmvl6jd-1">
                    <mxGeometry x="640" y="-10" width="160" height="660" as="geometry"/>
                </mxCell>
                <mxCell id="2dJTBPjTqBGKgnkC0r_L-21" value="" style="rounded=1;whiteSpace=wrap;html=1;fillColor=none;gradientColor=#ffffff;" vertex="1" parent="JIjRH5YEn0AflAmvl6jd-1">
                    <mxGeometry x="320" y="-10" width="160" height="660" as="geometry"/>
                </mxCell>
                <mxCell id="2dJTBPjTqBGKgnkC0r_L-20" value="" style="rounded=1;whiteSpace=wrap;html=1;fillColor=none;gradientColor=#ffffff;" vertex="1" parent="JIjRH5YEn0AflAmvl6jd-1">
                    <mxGeometry y="-10" width="160" height="660" as="geometry"/>
                </mxCell>
                <mxCell id="JIjRH5YEn0AflAmvl6jd-12" value="Redirect" style="endArrow=open;endSize=12;dashed=1;html=1;fontSize=24;startArrow=open;startFill=0;startSize=12;rounded=0;strokeWidth=2;exitX=0;exitY=0.5;exitDx=0;exitDy=0;entryX=1;entryY=0.5;entryDx=0;entryDy=0;fontStyle=1" edge="1" parent="JIjRH5YEn0AflAmvl6jd-1" source="2dJTBPjTqBGKgnkC0r_L-21" target="2dJTBPjTqBGKgnkC0r_L-20">
                    <mxGeometry width="160" relative="1" as="geometry">
                        <mxPoint x="280" y="370" as="sourcePoint"/>
                        <mxPoint x="210" y="360" as="targetPoint"/>
                    </mxGeometry>
                </mxCell>
                <mxCell id="JIjRH5YEn0AflAmvl6jd-13" value="Call" style="endArrow=open;endSize=12;dashed=1;html=1;fontSize=24;rounded=0;strokeWidth=2;entryX=0;entryY=0.5;entryDx=0;entryDy=0;exitX=1;exitY=0.5;exitDx=0;exitDy=0;exitPerimeter=0;fontStyle=1" edge="1" parent="JIjRH5YEn0AflAmvl6jd-1" source="2dJTBPjTqBGKgnkC0r_L-21" target="2dJTBPjTqBGKgnkC0r_L-22">
                    <mxGeometry width="160" relative="1" as="geometry">
                        <mxPoint x="530" y="360" as="sourcePoint"/>
                        <mxPoint x="590" y="360" as="targetPoint"/>
                    </mxGeometry>
                </mxCell>
                <mxCell id="2dJTBPjTqBGKgnkC0r_L-23" value="" style="edgeStyle=none;html=1;strokeWidth=2;entryX=0.5;entryY=0;entryDx=0;entryDy=0;" edge="1" parent="JIjRH5YEn0AflAmvl6jd-1" source="2dJTBPjTqBGKgnkC0r_L-4" target="2dJTBPjTqBGKgnkC0r_L-21">
                    <mxGeometry relative="1" as="geometry">
                        <mxPoint x="400" y="60" as="targetPoint"/>
                    </mxGeometry>
                </mxCell>
                <mxCell id="2dJTBPjTqBGKgnkC0r_L-4" value="" style="perimeter=ellipsePerimeter;html=1;align=center;shadow=0;dashed=0;spacingTop=3;image;image=img/lib/active_directory/users.svg;fillColor=#0000FF;" vertex="1" parent="JIjRH5YEn0AflAmvl6jd-1">
                    <mxGeometry x="360.00000000000006" y="-200" width="80" height="120" as="geometry"/>
                </mxCell>
                <mxCell id="dBXv0Cr02nEY2B-t-vJL-1" value="" style="edgeStyle=none;html=1;strokeWidth=2;" edge="1" parent="JIjRH5YEn0AflAmvl6jd-1" source="2dJTBPjTqBGKgnkC0r_L-5" target="dBXv0Cr02nEY2B-t-vJL-0">
                    <mxGeometry relative="1" as="geometry"/>
                </mxCell>
                <mxCell id="2dJTBPjTqBGKgnkC0r_L-5" value="" style="sketch=0;outlineConnect=0;fontColor=#232F3E;gradientColor=none;fillColor=#4D27AA;strokeColor=none;dashed=0;verticalLabelPosition=bottom;verticalAlign=top;align=center;html=1;fontSize=12;fontStyle=0;aspect=fixed;pointerEvents=1;shape=mxgraph.aws4.application_load_balancer;" vertex="1" parent="JIjRH5YEn0AflAmvl6jd-1">
                    <mxGeometry x="20" y="80" width="120" height="120" as="geometry"/>
                </mxCell>
                <mxCell id="dBXv0Cr02nEY2B-t-vJL-4" value="" style="edgeStyle=none;html=1;strokeWidth=2;" edge="1" parent="JIjRH5YEn0AflAmvl6jd-1" source="2dJTBPjTqBGKgnkC0r_L-6" target="dBXv0Cr02nEY2B-t-vJL-3">
                    <mxGeometry relative="1" as="geometry"/>
                </mxCell>
                <mxCell id="2dJTBPjTqBGKgnkC0r_L-6" value="" style="sketch=0;outlineConnect=0;fontColor=#232F3E;gradientColor=none;fillColor=#4D27AA;strokeColor=none;dashed=0;verticalLabelPosition=bottom;verticalAlign=top;align=center;html=1;fontSize=12;fontStyle=0;aspect=fixed;pointerEvents=1;shape=mxgraph.aws4.application_load_balancer;" vertex="1" parent="JIjRH5YEn0AflAmvl6jd-1">
                    <mxGeometry x="340" y="80" width="120" height="120" as="geometry"/>
                </mxCell>
                <mxCell id="2dJTBPjTqBGKgnkC0r_L-8" value="" style="perimeter=ellipsePerimeter;html=1;align=center;shadow=0;dashed=0;spacingTop=3;image;image=img/lib/active_directory/databases.svg;fillColor=default;gradientColor=#ffffff;" vertex="1" parent="JIjRH5YEn0AflAmvl6jd-1">
                    <mxGeometry x="20" y="520" width="120" height="120" as="geometry"/>
                </mxCell>
                <mxCell id="2dJTBPjTqBGKgnkC0r_L-9" value="" style="perimeter=ellipsePerimeter;html=1;align=center;shadow=0;dashed=0;spacingTop=3;image;image=img/lib/active_directory/databases.svg;fillColor=default;gradientColor=#ffffff;" vertex="1" parent="JIjRH5YEn0AflAmvl6jd-1">
                    <mxGeometry x="340" y="520" width="120" height="120" as="geometry"/>
                </mxCell>
                <mxCell id="2dJTBPjTqBGKgnkC0r_L-15" value="" style="edgeStyle=none;html=1;exitX=0;exitY=1;exitDx=0;exitDy=0;strokeWidth=2;entryX=1;entryY=0;entryDx=0;entryDy=0;" edge="1" parent="JIjRH5YEn0AflAmvl6jd-1" source="2dJTBPjTqBGKgnkC0r_L-4" target="2dJTBPjTqBGKgnkC0r_L-20">
                    <mxGeometry relative="1" as="geometry">
                        <mxPoint x="240" as="sourcePoint"/>
                        <mxPoint x="220" y="90" as="targetPoint"/>
                    </mxGeometry>
                </mxCell>
                <mxCell id="dBXv0Cr02nEY2B-t-vJL-2" value="" style="edgeStyle=none;html=1;strokeWidth=2;" edge="1" parent="JIjRH5YEn0AflAmvl6jd-1" source="dBXv0Cr02nEY2B-t-vJL-0" target="2dJTBPjTqBGKgnkC0r_L-8">
                    <mxGeometry relative="1" as="geometry"/>
                </mxCell>
                <mxCell id="dBXv0Cr02nEY2B-t-vJL-0" value="" style="perimeter=ellipsePerimeter;html=1;align=center;shadow=0;dashed=0;spacingTop=3;image;image=img/lib/active_directory/web_server.svg;fillColor=none;gradientColor=#ffffff;" vertex="1" parent="JIjRH5YEn0AflAmvl6jd-1">
                    <mxGeometry x="20" y="280" width="120" height="160" as="geometry"/>
                </mxCell>
                <mxCell id="dBXv0Cr02nEY2B-t-vJL-5" value="" style="edgeStyle=none;html=1;strokeWidth=2;" edge="1" parent="JIjRH5YEn0AflAmvl6jd-1" source="dBXv0Cr02nEY2B-t-vJL-3" target="2dJTBPjTqBGKgnkC0r_L-9">
                    <mxGeometry relative="1" as="geometry"/>
                </mxCell>
                <mxCell id="dBXv0Cr02nEY2B-t-vJL-3" value="" style="perimeter=ellipsePerimeter;html=1;align=center;shadow=0;dashed=0;spacingTop=3;image;image=img/lib/active_directory/web_server.svg;fillColor=none;gradientColor=#ffffff;" vertex="1" parent="JIjRH5YEn0AflAmvl6jd-1">
                    <mxGeometry x="340" y="280" width="120" height="160" as="geometry"/>
                </mxCell>
                <mxCell id="dBXv0Cr02nEY2B-t-vJL-6" value="" style="perimeter=ellipsePerimeter;html=1;align=center;shadow=0;dashed=0;spacingTop=3;image;image=img/lib/active_directory/web_server.svg;fillColor=none;gradientColor=#ffffff;" vertex="1" parent="JIjRH5YEn0AflAmvl6jd-1">
                    <mxGeometry x="660" y="280" width="120" height="160" as="geometry"/>
                </mxCell>
                <mxCell id="dBXv0Cr02nEY2B-t-vJL-7" value="Account" style="text;align=center;fontStyle=1;verticalAlign=middle;spacingLeft=3;spacingRight=3;strokeColor=none;rotatable=0;points=[[0,0.5],[1,0.5]];portConstraint=eastwest;fillColor=none;gradientColor=#ffffff;fontSize=28;" vertex="1" parent="JIjRH5YEn0AflAmvl6jd-1">
                    <mxGeometry x="10" width="140" height="46" as="geometry"/>
                </mxCell>
                <mxCell id="dBXv0Cr02nEY2B-t-vJL-8" value="Shopping" style="text;align=center;fontStyle=1;verticalAlign=middle;spacingLeft=3;spacingRight=3;strokeColor=none;rotatable=0;points=[[0,0.5],[1,0.5]];portConstraint=eastwest;fillColor=none;gradientColor=#ffffff;fontSize=28;" vertex="1" parent="JIjRH5YEn0AflAmvl6jd-1">
                    <mxGeometry x="330" width="140" height="46" as="geometry"/>
                </mxCell>
                <mxCell id="dBXv0Cr02nEY2B-t-vJL-9" value="Scraper" style="text;align=center;fontStyle=1;verticalAlign=middle;spacingLeft=3;spacingRight=3;strokeColor=none;rotatable=0;points=[[0,0.5],[1,0.5]];portConstraint=eastwest;fillColor=none;gradientColor=#ffffff;fontSize=28;" vertex="1" parent="JIjRH5YEn0AflAmvl6jd-1">
                    <mxGeometry x="650" width="140" height="46" as="geometry"/>
                </mxCell>
            </root>
        </mxGraphModel>
    </diagram>
    <diagram id="7tRKmhC-mB-L5PQ5Lk3L" name="Architecture-1">
        <mxGraphModel dx="1356" dy="838" grid="1" gridSize="10" guides="1" tooltips="1" connect="1" arrows="1" fold="1" page="0" pageScale="1" pageWidth="850" pageHeight="1100" background="#ffffff" math="0" shadow="0">
            <root>
                <mxCell id="if_bvw1ssVbsV0cjsmjo-0"/>
                <mxCell id="if_bvw1ssVbsV0cjsmjo-1" parent="if_bvw1ssVbsV0cjsmjo-0"/>
                <mxCell id="14" value="&lt;font style=&quot;font-size: 28px&quot;&gt;&lt;b&gt;Shopper&lt;/b&gt;&lt;/font&gt;" style="shape=umlFrame;whiteSpace=wrap;html=1;strokeWidth=2;width=160;height=60;fontSize=16;rounded=0;" parent="if_bvw1ssVbsV0cjsmjo-1" vertex="1">
                    <mxGeometry x="-40" y="60" width="880" height="430" as="geometry"/>
                </mxCell>
                <mxCell id="0" value="&lt;p style=&quot;margin: 0px ; margin-top: 6px ; text-align: center&quot;&gt;&lt;b&gt;&lt;font style=&quot;font-size: 28px&quot;&gt;Account&lt;/font&gt;&lt;/b&gt;&lt;/p&gt;&lt;hr style=&quot;font-size: 20px&quot;&gt;&lt;p style=&quot;margin: 0px 0px 0px 8px ; font-size: 20px&quot;&gt;&lt;font style=&quot;font-size: 20px&quot;&gt;&lt;br&gt;&lt;/font&gt;&lt;/p&gt;&lt;p style=&quot;text-align: center ; margin: 0px 0px 0px 8px&quot;&gt;&lt;font style=&quot;font-size: 24px&quot;&gt;Authen&lt;/font&gt;&lt;/p&gt;" style="align=left;overflow=fill;html=1;dropTarget=0;rounded=0;" parent="if_bvw1ssVbsV0cjsmjo-1" vertex="1">
                    <mxGeometry x="20" y="290" width="160" height="140" as="geometry"/>
                </mxCell>
                <mxCell id="1" value="" style="shape=component;jettyWidth=8;jettyHeight=4;rounded=0;" parent="0" vertex="1">
                    <mxGeometry x="1" width="20" height="20" relative="1" as="geometry">
                        <mxPoint x="-24" y="4" as="offset"/>
                    </mxGeometry>
                </mxCell>
                <mxCell id="2" value="&lt;p style=&quot;margin: 0px ; margin-top: 6px ; text-align: center&quot;&gt;&lt;b&gt;&lt;font style=&quot;font-size: 28px&quot;&gt;Shopping&lt;/font&gt;&lt;/b&gt;&lt;/p&gt;&lt;hr style=&quot;font-size: 20px&quot;&gt;&lt;p style=&quot;margin: 0px 0px 0px 8px ; font-size: 20px&quot;&gt;&lt;font style=&quot;font-size: 20px&quot;&gt;&lt;br&gt;&lt;/font&gt;&lt;/p&gt;&lt;p style=&quot;text-align: center ; margin: 0px 0px 0px 8px&quot;&gt;&lt;font&gt;&lt;font style=&quot;font-size: 24px&quot;&gt;Product&lt;/font&gt;&lt;br&gt;&lt;/font&gt;&lt;/p&gt;" style="align=left;overflow=fill;html=1;dropTarget=0;rounded=0;" parent="if_bvw1ssVbsV0cjsmjo-1" vertex="1">
                    <mxGeometry x="300" y="290" width="200" height="140" as="geometry"/>
                </mxCell>
                <mxCell id="3" value="" style="shape=component;jettyWidth=8;jettyHeight=4;rounded=0;" parent="2" vertex="1">
                    <mxGeometry x="1" width="20" height="20" relative="1" as="geometry">
                        <mxPoint x="-24" y="4" as="offset"/>
                    </mxGeometry>
                </mxCell>
                <mxCell id="7" value="&lt;p style=&quot;margin: 0px ; margin-top: 6px ; text-align: center&quot;&gt;&lt;b&gt;&lt;font style=&quot;font-size: 28px&quot;&gt;Scraper&lt;/font&gt;&lt;/b&gt;&lt;/p&gt;&lt;hr style=&quot;font-size: 20px&quot;&gt;&lt;p style=&quot;margin: 0px 0px 0px 8px ; font-size: 20px&quot;&gt;&lt;br&gt;&lt;/p&gt;&lt;p style=&quot;text-align: center ; margin: 0px 0px 0px 8px&quot;&gt;&lt;font style=&quot;font-size: 24px&quot;&gt;Worker&lt;/font&gt;&lt;/p&gt;" style="align=left;overflow=fill;html=1;dropTarget=0;rounded=0;" parent="if_bvw1ssVbsV0cjsmjo-1" vertex="1">
                    <mxGeometry x="620" y="290" width="160" height="140" as="geometry"/>
                </mxCell>
                <mxCell id="8" value="" style="shape=component;jettyWidth=8;jettyHeight=4;rounded=0;" parent="7" vertex="1">
                    <mxGeometry x="1" width="20" height="20" relative="1" as="geometry">
                        <mxPoint x="-24" y="4" as="offset"/>
                    </mxGeometry>
                </mxCell>
                <mxCell id="19" value="" style="edgeStyle=none;html=1;fontSize=18;entryX=0.5;entryY=0;entryDx=0;entryDy=0;rounded=0;" parent="if_bvw1ssVbsV0cjsmjo-1" source="15" target="2" edge="1">
                    <mxGeometry relative="1" as="geometry"/>
                </mxCell>
                <mxCell id="15" value="" style="shape=umlActor;verticalLabelPosition=bottom;verticalAlign=top;html=1;strokeWidth=3;rounded=0;" parent="if_bvw1ssVbsV0cjsmjo-1" vertex="1">
                    <mxGeometry x="385" y="134" width="30" height="60" as="geometry"/>
                </mxCell>
                <mxCell id="20" value="" style="edgeStyle=none;html=1;fontSize=18;entryX=0.5;entryY=0;entryDx=0;entryDy=0;exitX=0;exitY=1;exitDx=0;exitDy=0;exitPerimeter=0;rounded=0;" parent="if_bvw1ssVbsV0cjsmjo-1" source="15" target="0" edge="1">
                    <mxGeometry relative="1" as="geometry">
                        <mxPoint x="410" y="203.9999999999999" as="sourcePoint"/>
                        <mxPoint x="410" y="300" as="targetPoint"/>
                    </mxGeometry>
                </mxCell>
                <mxCell id="23" value="Redirect" style="endArrow=open;endSize=12;dashed=1;html=1;fontSize=18;entryX=1;entryY=0.5;entryDx=0;entryDy=0;exitX=0;exitY=0.5;exitDx=0;exitDy=0;startArrow=open;startFill=0;startSize=12;rounded=0;" parent="if_bvw1ssVbsV0cjsmjo-1" source="2" target="0" edge="1">
                    <mxGeometry width="160" relative="1" as="geometry">
                        <mxPoint x="10" y="358.57" as="sourcePoint"/>
                        <mxPoint x="-340" y="358.57" as="targetPoint"/>
                    </mxGeometry>
                </mxCell>
                <mxCell id="24" value="Call" style="endArrow=open;endSize=12;dashed=1;html=1;exitX=1;exitY=0.5;exitDx=0;exitDy=0;entryX=0;entryY=0.5;entryDx=0;entryDy=0;fontSize=18;rounded=0;" parent="if_bvw1ssVbsV0cjsmjo-1" source="2" target="7" edge="1">
                    <mxGeometry width="160" relative="1" as="geometry">
                        <mxPoint x="350" y="590" as="sourcePoint"/>
                        <mxPoint x="690" y="590" as="targetPoint"/>
                    </mxGeometry>
                </mxCell>
            </root>
        </mxGraphModel>
    </diagram>
</mxfile>